<?xml version="1.0" encoding="utf-8"?>
<!-- Generator: Adobe Illustrator 23.0.2, SVG Export Plug-In . SVG Version: 6.00 Build 0)  -->
<svg version="1.1" id="Capa_1" xmlns="http://www.w3.org/2000/svg" xmlns:xlink="http://www.w3.org/1999/xlink" x="0px" y="0px"
	 viewBox="0 0 800 800" style="enable-background:new 0 0 800 800;" xml:space="preserve">
<style type="text/css">
	.st0{fill:#FFFFFF;stroke:#000000;stroke-miterlimit:10;}
	.st1{fill-rule:evenodd;clip-rule:evenodd;}
</style>
<title>github [#142]</title>
<desc>Created with Sketch.</desc>
<g>
	<ellipse class="st0" cx="400.3" cy="401.1" rx="384.8" ry="375.8"/>
	<g id="Page-1">
		<g id="Dribbble-Light-Preview" transform="translate(-140.000000, -7559.000000)">
			<g id="icons" transform="translate(56.000000, 160.000000)">
				<path class="st1" d="M482.8,7448.2c193.7,0,350.8,157.3,350.8,351.3c0,155.2-100.4,286.8-239.7,333.3
					c-17.8,3.4-24.1-7.5-24.1-16.9c0-11.6,0.4-49.4,0.4-96.4c0-32.7-11.2-54.1-23.9-65c78.1-8.7,160.2-38.4,160.2-173.4
					c0-38.4-13.6-69.6-36.1-94.3c3.7-8.9,15.7-44.6-3.4-93c0,0-29.4-9.4-96.4,36.1c-28.1-7.8-58.1-11.7-87.9-11.8
					c-29.8,0.2-59.8,4-87.8,11.8c-67-45.4-96.5-36.1-96.5-36.1c-19,48.4-7,84.1-3.4,93c-22.5,24.6-36.1,55.9-36.1,94.3
					c0,134.6,81.9,164.7,159.8,173.6c-10,8.7-19.1,24.2-22.3,46.9c-20,9-70.8,24.5-102.1-29.2c0,0-18.6-33.7-53.8-36.2
					c0,0-34.2-0.4-2.4,21.3c0,0,23,10.8,38.9,51.4c0,0,20.6,62.7,118.2,41.5c0.2,29.4,0.5,57,0.5,65.4c0,9.3-6.5,20.1-23.9,16.9
					c-139.5-46.2-240-177.9-240-333.1C131.9,7605.5,289,7448.2,482.8,7448.2"/>
			</g>
		</g>
	</g>
</g>
</svg>
