<?xml version="1.0" encoding="utf-8"?>
<!-- Generator: Adobe Illustrator 23.0.2, SVG Export Plug-In . SVG Version: 6.00 Build 0)  -->
<svg version="1.1" id="Capa_1" xmlns="http://www.w3.org/2000/svg" xmlns:xlink="http://www.w3.org/1999/xlink" x="0px" y="0px"
	 viewBox="0 0 800 800" style="enable-background:new 0 0 800 800;" xml:space="preserve">
<style type="text/css">
	.st0{fill:#FFFFFF;}
</style>
<path class="st0" d="M399.3,24.3c-104.4,0-117.6,0.5-158.6,2.3c-41,1.9-69,8.2-93.5,17.5c-25.7,9.4-49,24.2-68.2,43.4
	c-19.6,18.7-34.8,41.5-44.4,66.6c-9.5,23.9-16,51.2-17.9,91.1c-1.8,40.2-2.3,52.9-2.3,155.1c0,102,0.5,114.8,2.3,154.9
	c1.9,40,8.4,67.3,17.9,91.2c9.9,24.7,23,45.7,44.4,66.6c21.4,20.9,42.8,33.8,68.1,43.4c24.5,9.3,52.4,15.6,93.4,17.5
	c41.1,1.8,54.2,2.3,158.7,2.3s117.6-0.5,158.6-2.3c40.9-1.9,69-8.2,93.5-17.5c25.7-9.4,48.9-24.2,68.1-43.4
	c21.4-20.9,34.5-41.9,44.4-66.6c9.5-23.9,16-51.2,17.9-91.2c1.8-40.1,2.3-52.8,2.3-154.9s-0.5-114.9-2.3-155
	c-1.9-40-8.4-67.3-17.9-91.2c-9.6-25.1-24.8-47.8-44.4-66.6C700.3,68.2,677,53.4,651.3,44c-24.5-9.3-52.5-15.6-93.5-17.5
	C516.8,24.8,503.8,24.3,399.3,24.3L399.3,24.3z M364.8,92h34.5c102.7,0,114.9,0.3,155.5,2.2c37.5,1.6,57.9,7.8,71.5,12.9
	c17.9,6.8,30.8,15,44.3,28.1s21.8,25.6,28.8,43.2c5.3,13.2,11.5,33.1,13.2,69.8c1.9,39.6,2.3,51.5,2.3,151.8s-0.4,112.2-2.3,151.8
	c-1.7,36.6-8,56.5-13.2,69.8c-6.2,16.3-16.1,31-28.8,43.2c-13.5,13.2-26.3,21.3-44.3,28.1c-13.5,5.2-33.9,11.3-71.4,13
	c-40.5,1.8-52.7,2.2-155.5,2.2s-115-0.4-155.5-2.2c-37.5-1.7-57.9-7.8-71.4-13c-16.7-6-31.8-15.6-44.3-28.1
	c-12.8-12.1-22.6-26.9-28.9-43.2c-5.2-13.2-11.5-33.1-13.2-69.8c-1.8-39.6-2.2-51.5-2.2-151.9s0.4-112.2,2.2-151.8
	c1.7-36.6,8-56.6,13.3-69.8c7-17.5,15.3-30.1,28.8-43.2c13.5-13.2,26.3-21.3,44.3-28.1c13.6-5.2,33.9-11.3,71.4-13
	C279.3,92.5,293.1,92,364.8,92L364.8,92z M604.7,154.4c-25.5,0-46.2,20.2-46.2,45.1s20.7,45.1,46.2,45.1l0,0
	c25.5,0,46.2-20.2,46.2-45.1S630.2,154.4,604.7,154.4 M399.3,207.1c-109.1-1.7-199,83.4-200.7,190s85.4,194.3,194.5,196
	c2.1,0,4.1,0,6.2,0c109.1-1.7,196.2-89.4,194.5-196C592.2,292.9,506.1,208.8,399.3,207.1 M399.3,274.8c70.8,0,128.3,56,128.3,125.2
	s-57.4,125.3-128.2,125.3h-0.1C328.5,525.3,271,469.2,271,400S328.5,274.8,399.3,274.8"/>
</svg>
